<svg width="73" height="64" viewBox="0 0 73 64" fill="none" xmlns="http://www.w3.org/2000/svg">
<path fill-rule="evenodd" clip-rule="evenodd" d="M2.29256 2.87795C7.30724 32.9704 38.1051 47.5872 70.2565 50.9107C70.8086 50.9687 71.2055 51.4081 71.1394 51.8922C71.0732 52.3762 70.5721 52.7242 70.02 52.6662C36.9679 49.2512 5.45254 34.0678 0.297928 3.13221C0.216515 2.6504 0.598175 2.20207 1.15027 2.13069C1.69982 2.05931 2.21115 2.39392 2.29256 2.87795Z" fill="black"/>
<path fill-rule="evenodd" clip-rule="evenodd" d="M69.5347 51.7265C68.1049 50.8098 66.2959 49.6766 66.0949 49.5428C60.6477 45.9159 56.1343 41.7426 52.1602 36.8465C51.8371 36.4495 51.944 35.8963 52.3969 35.613C52.8497 35.3297 53.4806 35.4234 53.8038 35.8205C57.6557 40.5693 62.0318 44.6178 67.3161 48.1354C67.624 48.3406 71.6923 50.8856 72.4708 51.4544C72.7914 51.6864 72.8905 51.905 72.9083 51.9585C73.0152 52.2396 72.9516 52.4604 72.8651 52.621C72.7659 52.8016 72.5191 53.0649 72.0408 53.1987C71.5396 53.337 70.4252 53.3995 70.1453 53.4352C65.9245 53.9839 61.1591 54.2738 56.8212 55.3267C52.6843 56.3304 48.9316 58.0301 46.5248 61.4361C46.2322 61.851 45.6089 61.9782 45.1356 61.7216C44.6624 61.4651 44.5173 60.9187 44.8099 60.5038C47.5017 56.6962 51.659 54.7445 56.2819 53.6225C60.5944 52.5764 65.3164 52.2596 69.5347 51.7265Z" fill="black"/>
</svg>
