<svg width="23" height="35" viewBox="0 0 23 35" fill="none" xmlns="http://www.w3.org/2000/svg">
<g clip-path="url(#clip0_13_177)">
<path d="M5.7773 34.32C8.9341 34.32 11.4962 31.7574 11.4962 28.6V22.88H5.7773C2.62049 22.88 0.0584412 25.4426 0.0584412 28.6C0.0584412 31.7574 2.62049 34.32 5.7773 34.32Z" fill="#0ACF83"/>
<path d="M0.0584412 17.16C0.0584412 14.0026 2.62049 11.44 5.7773 11.44H11.4962V22.88H5.7773C2.62049 22.88 0.0584412 20.3174 0.0584412 17.16Z" fill="#A259FF"/>
<path d="M0.0584412 5.72C0.0584412 2.56256 2.62049 0 5.7773 0H11.4962V11.44H5.7773C2.62049 11.44 0.0584412 8.87744 0.0584412 5.72Z" fill="#F24E1E"/>
<path d="M11.4962 0H17.215C20.3718 0 22.9339 2.56256 22.9339 5.72C22.9339 8.87744 20.3718 11.44 17.215 11.44H11.4962V0Z" fill="#FF7262"/>
<path d="M22.9339 17.16C22.9339 20.3174 20.3718 22.88 17.215 22.88C14.0582 22.88 11.4962 20.3174 11.4962 17.16C11.4962 14.0026 14.0582 11.44 17.215 11.44C20.3718 11.44 22.9339 14.0026 22.9339 17.16Z" fill="#1ABCFE"/>
</g>
<defs>
<clipPath id="clip0_13_177">
<rect width="22.88" height="34.32" fill="white" transform="translate(0.0561523)"/>
</clipPath>
</defs>
</svg>
