<svg width="107" height="35" viewBox="0 0 107 35" fill="none" xmlns="http://www.w3.org/2000/svg">
<g clip-path="url(#clip0_13_184)">
<path d="M13.8585 0.00305176H14.7935C18.0397 0.0736202 21.2329 1.37914 23.5264 3.69025C22.6796 4.55472 21.8151 5.3839 20.9859 6.24836C19.698 5.08398 18.1455 4.18423 16.4519 3.86667C13.9467 3.33741 11.2475 3.81375 9.14804 5.24276C6.85457 6.74234 5.30206 9.2828 4.96686 11.9997C4.59638 14.6813 5.35499 17.504 7.10156 19.5858C8.77756 21.6146 11.3357 22.8849 13.982 22.9731C16.4519 23.1142 19.0276 22.3556 20.8271 20.6267C22.2385 19.4094 22.8913 17.557 23.103 15.7575C20.1744 15.7575 17.2458 15.7751 14.3172 15.7575V12.1232H26.649C27.2841 16.0221 26.3668 20.415 23.4029 23.2024C21.427 25.1783 18.6924 26.3427 15.905 26.5721C13.2057 26.8367 10.4183 26.3251 8.01895 25.0196C5.14328 23.4847 2.84981 20.8913 1.72071 17.8392C0.662185 15.0341 0.644542 11.8586 1.6325 9.03581C2.53225 6.46007 4.26118 4.18423 6.48408 2.59644C8.61878 1.02629 11.2122 0.161831 13.8585 0.00305176Z" fill="#3780FF"/>
<path d="M84.6034 0.92041H88.3788V26.1134C87.1262 26.1134 85.856 26.131 84.6034 26.0957C84.621 17.7157 84.6034 9.31806 84.6034 0.92041Z" fill="#38B137"/>
<path d="M35.0467 9.65326C37.3755 9.21221 39.8983 9.70619 41.8213 11.0999C43.5679 12.3349 44.7852 14.2755 45.1557 16.3925C45.632 18.8448 45.0322 21.5264 43.4444 23.467C41.7331 25.637 38.928 26.8014 36.1934 26.625C33.6882 26.4838 31.2536 25.2312 29.7717 23.1848C28.0957 20.9266 27.6899 17.8216 28.6073 15.1752C29.5247 12.3349 32.1181 10.1649 35.0467 9.65326ZM35.576 13.0053C34.6233 13.2523 33.7412 13.7992 33.1061 14.5754C31.3948 16.6219 31.5006 19.9563 33.3883 21.8616C34.4645 22.9554 36.0876 23.467 37.5872 23.1671C38.9809 22.9201 40.1982 21.9851 40.8686 20.7501C42.033 18.6507 41.6978 15.7574 39.9159 14.1167C38.7692 13.0582 37.0932 12.6171 35.576 13.0053Z" fill="#FA3913"/>
<path d="M53.7473 9.65328C56.4113 9.14166 59.3222 9.88263 61.3158 11.7527C64.5619 14.6636 64.9148 20.115 62.145 23.467C60.469 25.5841 57.7521 26.7485 55.0705 26.625C52.5124 26.5544 49.9896 25.2842 48.4723 23.1848C46.7611 20.8736 46.3906 17.6981 47.3609 14.9988C48.3312 12.2467 50.8717 10.1473 53.7473 9.65328ZM54.2766 13.0053C53.3239 13.2523 52.4418 13.7992 51.8067 14.5578C50.113 16.569 50.1836 19.8504 52.0008 21.7734C53.0769 22.9201 54.7529 23.4847 56.3054 23.1671C57.6815 22.9025 58.9165 21.9851 59.5869 20.7501C60.7336 18.6331 60.3984 15.7398 58.5989 14.0991C57.4522 13.0406 55.7762 12.6171 54.2766 13.0053Z" fill="#FCBD06"/>
<path d="M69.6076 10.6765C71.6364 9.40629 74.3357 9.05345 76.5233 10.1473C77.2114 10.4472 77.7759 10.9588 78.3228 11.4704C78.3405 10.9941 78.3228 10.5001 78.3405 10.0061C79.5225 10.0238 80.7045 10.0061 81.9042 10.0238V25.5841C81.8865 27.9305 81.2867 30.418 79.593 32.1293C77.7406 34.017 74.9002 34.5992 72.3421 34.2111C69.6076 33.8053 67.2259 31.8118 66.1674 29.289C67.2259 28.7773 68.3374 28.3716 69.4312 27.8952C70.0487 29.3419 71.3012 30.5768 72.8714 30.8591C74.4415 31.1414 76.2587 30.7532 77.2819 29.4477C78.3757 28.1069 78.3757 26.2722 78.3228 24.6314C77.5113 25.4253 76.5762 26.131 75.4471 26.3956C72.9949 27.0837 70.2956 26.2369 68.4079 24.5785C66.5026 22.9202 65.3735 20.362 65.4793 17.8216C65.5323 14.9459 67.1553 12.1761 69.6076 10.6765ZM73.2595 12.9347C72.1834 13.1111 71.1778 13.711 70.4897 14.5401C68.8313 16.5161 68.8313 19.674 70.5074 21.6146C71.46 22.7614 72.9949 23.3965 74.4768 23.2377C75.8706 23.0966 77.1584 22.2145 77.8465 20.9972C79.0109 18.933 78.8168 16.1279 77.2466 14.3284C76.2763 13.217 74.7238 12.6701 73.2595 12.9347Z" fill="#3780FF"/>
<path d="M92.9129 11.5763C95.0299 9.60038 98.2937 8.92998 101.011 9.97086C103.586 10.9412 105.227 13.3934 106.056 15.9163C102.228 17.504 98.4172 19.0742 94.5889 20.662C95.1181 21.6676 95.9297 22.585 97.0235 22.9555C98.5584 23.5024 100.393 23.3083 101.681 22.2851C102.193 21.8969 102.598 21.3853 102.987 20.8913C103.957 21.5441 104.927 22.1792 105.898 22.832C104.521 24.8961 102.21 26.3427 99.7228 26.5721C96.9706 26.9073 94.042 25.8488 92.2601 23.6964C89.3315 20.3091 89.6138 14.6284 92.9129 11.5763ZM94.8006 14.8401C94.2008 15.7045 93.9538 16.7631 93.9714 17.804C96.5295 16.7454 99.0876 15.6869 101.646 14.6107C101.222 13.6228 100.199 13.0229 99.1582 12.8642C97.4822 12.5643 95.7356 13.464 94.8006 14.8401Z" fill="#FA3913"/>
</g>
<defs>
<clipPath id="clip0_13_184">
<rect width="105.147" height="34.32" fill="white" transform="translate(0.90918)"/>
</clipPath>
</defs>
</svg>
