<svg width="121" height="35" viewBox="0 0 121 35" fill="none" xmlns="http://www.w3.org/2000/svg">
<g clip-path="url(#clip0_13_174)">
<path d="M6.24406 0.121526C3.76817 1.15872 1.04631 4.0852 0.186668 7.76138C-0.902034 12.4177 3.62849 14.3868 4.00008 13.7422C4.43743 12.9834 3.18828 12.7268 2.93113 10.3108C2.59883 7.19025 4.04955 3.70343 5.87553 2.17351C6.21495 1.88927 6.19866 2.28488 6.19866 3.01666C6.19866 4.32546 6.12638 16.0725 6.12638 18.5244C6.12638 21.8418 5.98935 22.8894 5.74318 23.9243C5.49376 24.9733 5.09306 25.6821 5.39664 25.9553C5.73606 26.2608 7.18494 25.5343 8.02382 24.3635C9.02965 22.9594 9.38169 21.2731 9.44501 19.4419C9.52137 17.2343 9.51811 13.7314 9.52137 11.7334C9.52442 9.90091 9.55211 4.53497 9.4892 1.30918C9.47393 0.517955 7.27962 -0.312163 6.24406 0.121526ZM120.438 17.5493C120.079 17.5493 119.915 17.9195 119.78 18.5427C119.309 20.7097 118.815 21.1988 118.177 21.1988C117.465 21.1988 116.825 20.1258 116.661 17.9781C116.531 16.2894 116.552 13.18 116.717 10.0874C116.751 9.45195 116.576 8.8232 114.872 8.20403C114.138 7.9375 113.072 7.54555 112.541 8.82687C111.042 12.4468 110.455 15.321 110.317 16.4881C110.309 16.5486 110.236 16.5608 110.222 16.4197C110.134 15.4847 109.938 13.7854 109.913 10.2155C109.909 9.51894 109.761 8.92603 108.992 8.44062C108.493 8.12543 106.978 7.56856 106.433 8.23131C105.961 8.77332 105.413 10.232 104.844 11.961C104.382 13.3661 104.06 14.3168 104.06 14.3168C104.06 14.3168 104.066 10.525 104.072 9.08667C104.074 8.54405 103.702 8.36304 103.59 8.33047C103.085 8.18387 102.09 7.93892 101.667 7.93892C101.146 7.93892 101.018 8.23029 101.018 8.65482C101.018 8.7104 100.936 13.6471 100.936 17.0991C100.936 17.249 100.936 17.4127 100.937 17.5866C100.648 19.1731 99.7134 21.3269 98.6966 21.3269C97.6785 21.3269 97.1984 20.4265 97.1984 16.3112C97.1984 13.9106 97.2705 12.8665 97.3057 11.1303C97.3265 10.1302 97.3662 9.36195 97.3638 9.18787C97.3562 8.65339 96.432 8.38402 96.002 8.28425C95.57 8.18407 95.1945 8.14498 94.9013 8.16167C94.4863 8.18509 94.1929 8.45732 94.1929 8.83175C94.1929 9.03251 94.1952 9.41408 94.1952 9.41408C93.6607 8.57419 92.8009 7.98962 92.2291 7.82022C90.6886 7.36291 89.0811 7.7683 87.8686 9.46478C86.9049 10.8129 86.324 12.34 86.0954 14.5336C85.9282 16.1373 85.9828 17.7637 86.2799 19.1391C85.9209 20.691 85.2545 21.3269 84.5247 21.3269C83.4653 21.3269 82.6973 19.5978 82.7865 16.6072C82.8454 14.6401 83.2389 13.2599 83.6692 11.2629C83.8526 10.4114 83.7036 9.96586 83.3297 9.53869C82.9869 9.14674 82.2565 8.94679 81.2061 9.19296C80.458 9.36827 79.3883 9.55722 78.4099 9.70219C78.4099 9.70219 78.469 9.46661 78.5174 9.05125C78.7719 6.87303 76.405 7.04976 75.6498 7.7455C75.199 8.16086 74.8922 8.65074 74.7757 9.53156C74.591 10.9291 75.7308 11.5886 75.7308 11.5886C75.3568 13.301 74.4399 15.5374 73.4936 17.1545C72.9866 18.0209 72.5985 18.6629 72.098 19.3454C72.0962 19.0917 72.0948 18.838 72.0939 18.5843C72.0823 14.9846 72.1304 12.1516 72.1514 11.1305C72.1721 10.1304 72.2122 9.38272 72.2098 9.20864C72.2043 8.81771 71.9761 8.66988 71.5012 8.48317C71.0814 8.31784 70.585 8.20341 70.0701 8.16351C69.4203 8.11301 69.0286 8.45752 69.039 8.86515C69.041 8.94211 69.041 9.41469 69.041 9.41469C68.5065 8.5748 67.6467 7.99023 67.075 7.82083C65.5344 7.36352 63.9269 7.76891 62.7144 9.46539C61.751 10.8135 61.12 12.7052 60.9412 14.5174C60.7747 16.2063 60.8054 17.6415 61.0324 18.8506C60.7875 20.0612 60.0832 21.3273 59.2869 21.3273C58.2688 21.3273 57.6896 20.4269 57.6896 16.3116C57.6896 13.911 57.7616 12.8671 57.7969 11.1307C57.8176 10.1306 57.8573 9.36236 57.8549 9.18828C57.8474 8.6538 56.9232 8.38442 56.4931 8.28465C56.0432 8.18041 55.6547 8.14233 55.3564 8.16432C54.9626 8.19364 54.6861 8.54589 54.6861 8.80875V9.41469C54.1516 8.5748 53.2918 7.99023 52.7201 7.82083C51.1795 7.36352 49.581 7.77543 48.3595 9.46539C47.563 10.5673 46.9182 11.789 46.5863 14.4933C46.4904 15.2748 46.4481 16.0068 46.4536 16.6907C46.1359 18.6331 44.7332 20.8718 43.5855 20.8718C42.914 20.8718 42.2745 19.5695 42.2745 16.7937C42.2745 13.0962 42.5035 7.83183 42.542 7.32443C42.542 7.32443 43.9919 7.29979 44.2727 7.29654C44.9961 7.28859 45.6511 7.3057 46.6142 7.25642C47.0974 7.23179 47.5628 5.49785 47.0642 5.28324C46.8384 5.18612 45.2408 5.10101 44.6078 5.08757C44.0754 5.07556 42.5929 4.96581 42.5929 4.96581C42.5929 4.96581 42.7259 1.47146 42.757 1.10231C42.7833 0.794457 42.3852 0.636252 42.157 0.539945C41.6017 0.305386 41.1053 0.19279 40.5167 0.0714381C39.7035 -0.0963364 39.3343 0.0677732 39.2625 0.754346C39.1539 1.79581 39.0977 4.84711 39.0977 4.84711C38.5008 4.84711 36.4624 4.73044 35.8654 4.73044C35.3106 4.73044 34.7122 7.11573 35.479 7.14505C36.3612 7.17926 37.8987 7.20878 38.9179 7.23952C38.9179 7.23952 38.8725 12.5908 38.8725 14.2429C38.8725 14.4186 38.8732 14.5878 38.8744 14.7521C38.3134 17.676 36.3374 19.2554 36.3374 19.2554C36.7617 17.3211 35.895 15.8685 34.3339 14.6389C33.7585 14.1857 32.6231 13.3281 31.3526 12.388C31.3526 12.388 32.0885 11.6627 32.741 10.2035C33.2034 9.16995 33.2234 7.98718 32.0883 7.72636C30.2132 7.29531 28.6668 8.67233 28.2056 10.1426C27.8483 11.2818 28.0389 12.1268 28.7389 13.0049C28.79 13.0691 28.8454 13.1344 28.9026 13.2004C28.4793 14.0163 27.8978 15.1147 27.4052 15.9667C26.038 18.3318 25.0055 20.2026 24.2249 20.2026C23.601 20.2026 23.6095 18.3033 23.6095 16.525C23.6095 14.992 23.7227 12.6871 23.8132 10.3008C23.8431 9.51161 23.4483 9.06204 22.7868 8.65482C22.3848 8.40743 21.527 7.92101 21.0304 7.92101C20.2868 7.92101 18.1414 8.0222 16.1143 13.886C15.8587 14.6251 15.3568 15.9717 15.3568 15.9717L15.4 8.92032C15.4 8.75499 15.3118 8.59496 15.1103 8.48562C14.7686 8.30033 13.8562 7.92101 13.045 7.92101C12.6586 7.92101 12.4656 8.10079 12.4656 8.45915L12.3947 19.4913C12.3947 20.3296 12.4165 21.3075 12.4996 21.7351C12.582 22.1635 12.7158 22.5117 12.8815 22.719C13.0469 22.9258 13.2383 23.0836 13.5539 23.1488C13.8475 23.2093 15.4554 23.4157 15.5391 22.8012C15.6392 22.0648 15.6429 21.2682 16.4873 18.2976C17.8018 13.6726 19.5156 11.416 20.3214 10.6146C20.4621 10.4745 20.623 10.4661 20.6153 10.6954C20.581 11.7092 20.4601 14.2431 20.3785 16.3957C20.1602 22.1562 21.2082 23.2239 22.7057 23.2239C23.8514 23.2239 25.4665 22.0853 27.1978 19.2038C28.2769 17.408 29.3249 15.6472 30.078 14.3781C30.6027 14.8639 31.1914 15.3866 31.78 15.9451C33.1474 17.2429 33.5964 18.4761 33.2985 19.6461C33.0707 20.5405 32.2127 21.4623 30.6856 20.5664C30.2405 20.3052 30.0503 20.1032 29.603 19.8084C29.3625 19.6502 28.9956 19.6027 28.7755 19.7687C28.2036 20.1997 27.8766 20.7482 27.6899 21.4271C27.5083 22.0876 28.1698 22.4368 28.8556 22.7422C29.446 23.005 30.7151 23.2433 31.5245 23.2703C34.6778 23.3758 37.2042 21.7477 38.9625 17.5481C39.2775 21.175 40.6171 23.2274 42.9449 23.2274C44.5011 23.2274 46.0614 21.2159 46.7437 19.237C46.9396 20.0437 47.2295 20.745 47.6039 21.3383C49.3975 24.1801 52.877 23.5684 54.6248 21.1554C55.165 20.4098 55.2475 20.1417 55.2475 20.1417C55.5024 22.4203 57.3373 23.2166 58.3879 23.2166C59.5646 23.2166 60.7795 22.6603 61.631 20.7433C61.7286 20.9479 61.838 21.1466 61.9586 21.3385C63.7522 24.1803 67.2317 23.5686 68.9795 21.1556C69.0618 21.0422 69.1335 20.9396 69.1958 20.8474L69.2471 22.3443L67.6381 23.8201C64.9409 26.2921 62.8918 28.1672 62.7411 30.3507C62.5495 33.1348 64.8061 34.1696 66.5158 34.3052C68.3284 34.4491 69.8833 33.447 70.8379 32.0443C71.6778 30.81 72.2273 28.1531 72.1872 25.5288C72.1711 24.478 72.1446 23.1419 72.1237 21.7097C73.0705 20.6102 74.1374 19.2203 75.1194 17.5939C76.19 15.8211 77.3371 13.4407 77.9243 11.588C77.9243 11.588 78.921 11.5966 79.9846 11.5269C80.3249 11.5047 80.4224 11.574 80.3597 11.8236C80.2837 12.1247 79.0159 17.0152 80.173 20.273C80.965 22.5031 82.7505 23.2207 83.809 23.2207C85.0482 23.2207 86.2334 22.2849 86.8687 20.8952C86.9452 21.0502 87.0255 21.2 87.1126 21.3385C88.9062 24.1803 92.3735 23.5652 94.1335 21.1556C94.5305 20.612 94.7561 20.1419 94.7561 20.1419C95.1338 22.5001 96.9677 23.2286 98.0182 23.2286C99.1124 23.2286 100.151 22.7801 100.993 20.7865C101.028 21.6645 101.084 22.382 101.171 22.6082C101.225 22.7467 101.536 22.9203 101.762 23.0042C102.763 23.3752 103.784 23.1999 104.161 23.1235C104.423 23.0706 104.627 22.8607 104.655 22.3187C104.728 20.8954 104.683 18.5042 105.115 16.7269C105.839 13.7445 106.514 12.5873 106.835 12.0148C107.014 11.6939 107.217 11.641 107.224 11.9806C107.239 12.6678 107.273 14.6857 107.554 17.397C107.76 19.391 108.035 20.5697 108.247 20.9427C108.85 22.0092 109.596 22.0597 110.203 22.0597C110.589 22.0597 111.397 21.9532 111.325 21.2744C111.289 20.9435 111.351 18.8986 112.065 15.9603C112.531 14.0415 113.309 12.308 113.589 11.6739C113.693 11.4402 113.741 11.6245 113.739 11.6603C113.68 12.9817 113.547 17.304 114.086 19.6679C114.816 22.8705 116.926 23.2286 117.662 23.2286C119.232 23.2286 120.517 22.034 120.95 18.8907C121.055 18.1335 120.9 17.5493 120.438 17.5493ZM54.6539 15.6061C54.5639 17.2696 54.2394 18.6602 53.7186 19.6703C52.7762 21.4985 50.9118 22.0782 50.0898 19.4366C49.4971 17.5318 49.6989 14.9343 49.9455 13.5315C50.3113 11.4492 51.2276 9.97299 52.658 10.1129C54.1272 10.2566 54.8415 12.1447 54.6539 15.6061ZM69.0086 15.6301C68.9248 17.2009 68.5175 18.7789 68.0733 19.6705C67.1562 21.5114 65.239 22.0868 64.4445 19.4368C63.9013 17.6261 64.0314 15.2827 64.3002 13.8063C64.6489 11.8904 65.4943 10.1131 67.0126 10.1131C68.4888 10.1129 69.2167 11.7324 69.0086 15.6301ZM69.3833 26.3471C69.3633 29.2127 68.9125 31.7252 67.9454 32.455C66.5737 33.4897 64.73 32.7136 65.1117 30.6225C65.4495 28.7721 67.0471 26.8824 69.3874 24.5734C69.3872 24.5734 69.392 25.1 69.3833 26.3471ZM94.163 15.6468C94.0832 17.3714 93.7014 18.7195 93.2276 19.6703C92.3104 21.5112 90.4068 22.0827 89.5989 19.4366C89.1585 17.9942 89.1379 15.5851 89.4545 13.5722C89.7768 11.5218 90.6768 9.97299 92.167 10.1129C93.6369 10.2507 94.3249 12.1447 94.163 15.6468Z" fill="#6D6E70"/>
</g>
<defs>
<clipPath id="clip0_13_174">
<rect width="121" height="34.3156" fill="white" transform="translate(0 0.00219727)"/>
</clipPath>
</defs>
</svg>
