<svg width="71" height="35" viewBox="0 0 71 35" fill="none" xmlns="http://www.w3.org/2000/svg">
<g clip-path="url(#clip0_13_191)">
<path d="M15.2009 22.6326C15.2009 24.6056 15.6338 26.1202 16.1999 27.0365C16.9421 28.2368 18.0489 28.7463 19.1774 28.7463C20.6326 28.7463 21.9641 28.3851 24.5299 24.8363C26.5859 21.992 29.0076 17.9995 30.6373 15.4965L33.3972 11.256C35.3143 8.31108 37.5333 5.03737 40.0777 2.81833C42.1554 1.00703 44.3954 0.000854492 46.6504 0.000854492C50.4364 0.000854492 54.0425 2.1948 56.8024 6.30954C59.8229 10.8158 61.289 16.4921 61.289 22.3495C61.289 25.8319 60.6027 28.3905 59.4346 30.4119C58.3064 32.3667 56.1071 34.32 52.4074 34.32V28.7454C55.5753 28.7454 56.3657 25.8345 56.3657 22.5032C56.3657 17.756 55.2589 12.4879 52.8206 8.72359C51.0904 6.05351 48.848 4.42207 46.381 4.42207C43.7126 4.42207 41.5654 6.43486 39.1522 10.0226C37.8692 11.9291 36.5523 14.2523 35.0734 16.8739L33.4454 19.7578C30.1756 25.557 29.3471 26.8772 27.712 29.0562C24.8463 32.8723 22.3989 34.3191 19.1774 34.3191C15.3554 34.3191 12.9388 32.6641 11.442 30.1702C10.2202 28.1381 9.62008 25.4715 9.62008 22.4333L15.2009 22.6326Z" fill="#0081FB"/>
<path d="M14.0205 6.70216C16.5791 2.75817 20.2716 0 24.5067 0C26.9593 0 29.398 0.725903 31.9437 2.80492C34.7287 5.07742 37.697 8.82164 41.4003 14.9899L42.7281 17.2029C45.9337 22.543 47.7573 25.2904 48.8247 26.5859C50.1973 28.2496 51.1587 28.7457 52.4075 28.7457C55.5754 28.7457 56.3658 25.8347 56.3658 22.5034L61.2891 22.3489C61.2891 25.8312 60.6028 28.3899 59.4348 30.4113C58.3065 32.3661 56.1072 34.3194 52.4075 34.3194C50.1075 34.3194 48.0701 33.8198 45.8168 31.6941C44.0854 30.0626 42.0596 27.1644 40.5017 24.5591L35.8678 16.8185C33.5429 12.9338 31.4093 10.0373 30.1757 8.72555C28.8477 7.31487 27.1407 5.61157 24.4167 5.61157C22.2121 5.61157 20.3398 7.1586 18.7731 9.52504L14.0205 6.70216Z" fill="url(#paint0_linear_13_191)"/>
<path d="M24.4167 5.61157C22.2121 5.61157 20.3398 7.1586 18.7731 9.52504C16.5575 12.8689 15.202 17.8495 15.202 22.6326C15.202 24.6056 15.6349 26.1202 16.201 27.0365L11.442 30.1702C10.2202 28.1381 9.62008 25.4715 9.62008 22.4333C9.62008 16.9081 11.1366 11.1493 14.0205 6.70216C16.5791 2.75817 20.2716 0 24.5067 0L24.4167 5.61157Z" fill="url(#paint1_linear_13_191)"/>
</g>
<defs>
<linearGradient id="paint0_linear_13_191" x1="20.8207" y1="16.2703" x2="56.3974" y2="18.0671" gradientUnits="userSpaceOnUse">
<stop stop-color="#0064E1"/>
<stop offset="0.4" stop-color="#0064E1"/>
<stop offset="0.83" stop-color="#0073EE"/>
<stop offset="1" stop-color="#0082FB"/>
</linearGradient>
<linearGradient id="paint1_linear_13_191" x1="17.0633" y1="24.9757" x2="17.0633" y2="11.859" gradientUnits="userSpaceOnUse">
<stop stop-color="#0082FB"/>
<stop offset="1" stop-color="#0064E0"/>
</linearGradient>
<clipPath id="clip0_13_191">
<rect width="70.9091" height="34.32" fill="white"/>
</clipPath>
</defs>
</svg>
