<svg width="155" height="34" viewBox="0 0 155 34" fill="none" xmlns="http://www.w3.org/2000/svg">
<g clip-path="url(#clip0_13_168)">
<path d="M155 15.5843V12.8584H151.615V8.6206L151.501 8.65569L148.322 9.6285L148.259 9.64754V12.8585H143.241V11.0697C143.241 10.2368 143.427 9.59941 143.794 9.17433C144.158 8.75435 144.68 8.54083 145.345 8.54083C145.823 8.54083 146.318 8.65344 146.816 8.8755L146.941 8.93128V6.06052L146.882 6.03893C146.417 5.8719 145.785 5.78778 145.002 5.78778C144.014 5.78778 143.117 6.00265 142.335 6.42848C141.552 6.85491 140.936 7.46366 140.505 8.23765C140.075 9.01074 139.857 9.90364 139.857 10.8917V12.8584H137.5V15.5843H139.857V27.068H143.241V15.5843H148.259V22.882C148.259 25.8876 149.677 27.4106 152.472 27.4106C152.932 27.4106 153.415 27.3568 153.909 27.2514C154.412 27.1432 154.754 27.035 154.956 26.9196L155 26.8932V24.1421L154.863 24.2331C154.679 24.3555 154.45 24.4555 154.182 24.5298C153.913 24.6056 153.688 24.6435 153.514 24.6435C152.859 24.6435 152.374 24.467 152.073 24.1187C151.769 23.7673 151.615 23.1526 151.615 22.2929V15.5843H155ZM129.943 24.6439C128.715 24.6439 127.747 24.2367 127.065 23.4345C126.378 22.6283 126.03 21.4789 126.03 20.0184C126.03 18.5117 126.378 17.3324 127.065 16.5119C127.748 15.6969 128.707 15.2832 129.916 15.2832C131.089 15.2832 132.023 15.6783 132.692 16.4581C133.364 17.242 133.706 18.4118 133.706 19.9361C133.706 21.4792 133.385 22.6644 132.752 23.4573C132.124 24.2442 131.179 24.6439 129.943 24.6439ZM130.094 12.516C127.751 12.516 125.89 13.2026 124.563 14.5567C123.237 15.911 122.564 17.7851 122.564 20.1275C122.564 22.3523 123.22 24.1418 124.515 25.4455C125.81 26.7497 127.571 27.4103 129.751 27.4103C132.022 27.4103 133.846 26.7142 135.173 25.3413C136.499 23.97 137.171 22.1136 137.171 19.8259C137.171 17.5663 136.54 15.7634 135.296 14.4684C134.052 13.1728 132.301 12.516 130.094 12.516ZM117.109 12.516C115.515 12.516 114.196 12.9237 113.189 13.7276C112.176 14.5362 111.662 15.5967 111.662 16.8801C111.662 17.5471 111.773 18.1397 111.991 18.6423C112.211 19.1465 112.551 19.5905 113.002 19.9631C113.451 20.3327 114.142 20.7199 115.059 21.1138C115.83 21.4309 116.405 21.6991 116.77 21.9105C117.126 22.1178 117.38 22.326 117.523 22.5289C117.662 22.7274 117.732 22.9991 117.732 23.3344C117.732 24.289 117.017 24.7536 115.546 24.7536C115.001 24.7536 114.378 24.6396 113.696 24.415C113.02 24.1938 112.381 23.8698 111.802 23.4545L111.662 23.3537V26.6115L111.713 26.6355C112.192 26.8565 112.796 27.0428 113.507 27.1895C114.217 27.3363 114.862 27.4109 115.423 27.4109C117.152 27.4109 118.545 27.0013 119.562 26.1927C120.584 25.3785 121.103 24.2929 121.103 22.9652C121.103 22.0074 120.824 21.186 120.274 20.5236C119.727 19.8666 118.779 19.2633 117.457 18.7302C116.403 18.3073 115.729 17.9563 115.45 17.6869C115.182 17.4266 115.045 17.0585 115.045 16.5923C115.045 16.1791 115.214 15.848 115.559 15.5799C115.907 15.3105 116.391 15.1734 116.999 15.1734C117.563 15.1734 118.14 15.2625 118.713 15.437C119.287 15.6116 119.79 15.8453 120.21 16.1313L120.349 16.2257V13.1354L120.295 13.1127C119.908 12.9464 119.396 12.8041 118.775 12.6886C118.157 12.5739 117.596 12.516 117.109 12.516ZM102.841 24.6439C101.613 24.6439 100.644 24.2367 99.9621 23.4345C99.2754 22.6283 98.9281 21.4792 98.9281 20.0184C98.9281 18.5117 99.2758 17.3324 99.9628 16.5119C100.645 15.6969 101.604 15.2832 102.814 15.2832C103.986 15.2832 104.92 15.6783 105.59 16.4581C106.262 17.242 106.603 18.4118 106.603 19.9361C106.603 21.4792 106.282 22.6644 105.649 23.4573C105.021 24.2442 104.077 24.6439 102.841 24.6439ZM102.992 12.516C100.648 12.516 98.7867 13.2026 97.4605 14.5567C96.1344 15.911 95.4616 17.7851 95.4616 20.1275C95.4616 22.3532 96.1184 24.1418 97.413 25.4455C98.7075 26.7497 100.469 27.4103 102.649 27.4103C104.92 27.4103 106.744 26.7142 108.071 25.3413C109.397 23.97 110.069 22.1136 110.069 19.8259C110.069 17.5663 109.438 15.7634 108.194 14.4684C106.949 13.1728 105.198 12.516 102.992 12.516ZM90.3253 15.3192V12.8584H86.9828V27.0677H90.3253V19.7991C90.3253 18.5631 90.6055 17.5477 91.1585 16.7808C91.7044 16.023 92.4319 15.639 93.3202 15.639C93.6213 15.639 93.9592 15.6886 94.3252 15.7868C94.6875 15.8844 94.9499 15.9905 95.1046 16.102L95.2451 16.2038V12.8341L95.191 12.8108C94.8797 12.6786 94.4393 12.6119 93.8822 12.6119C93.0422 12.6119 92.2905 12.8817 91.6467 13.4131C91.0816 13.8802 90.6731 14.5206 90.3608 15.3192H90.3253ZM80.9971 12.516C79.4636 12.516 78.0959 12.8449 76.9325 13.4931C75.7667 14.1427 74.8651 15.0703 74.2517 16.2497C73.641 17.4263 73.3309 18.8006 73.3309 20.3333C73.3309 21.6759 73.6316 22.9079 74.2258 23.9938C74.8203 25.0815 75.6617 25.9324 76.7269 26.5226C77.7906 27.112 79.02 27.4108 80.3811 27.4108C81.9696 27.4108 83.3258 27.0932 84.4131 26.4669L84.4571 26.4417V23.3795L84.3166 23.4821C83.824 23.8409 83.2736 24.1273 82.6813 24.3336C82.0906 24.5397 81.552 24.6439 81.0797 24.6439C79.7682 24.6439 78.7153 24.2336 77.951 23.4245C77.1851 22.6144 76.7968 21.4768 76.7968 20.0453C76.7968 18.6048 77.2018 17.438 77.9999 16.577C78.7956 15.7186 79.8505 15.2832 81.1349 15.2832C82.2335 15.2832 83.304 15.6552 84.3169 16.3899L84.4571 16.4917V13.2651L84.4118 13.2397C84.0306 13.0263 83.5108 12.8501 82.8655 12.7165C82.2228 12.5832 81.5943 12.516 80.9971 12.516ZM71.0289 12.8585H67.6864V27.0677H71.0289V12.8585ZM69.3918 6.80527C68.8417 6.80527 68.3619 6.99255 67.9677 7.36365C67.5719 7.7358 67.3711 8.20437 67.3711 8.75734C67.3711 9.30163 67.5695 9.76164 67.9616 10.1239C68.3511 10.4851 68.8324 10.6682 69.392 10.6682C69.9514 10.6682 70.4345 10.4851 70.8287 10.1245C71.2255 9.76164 71.4267 9.30178 71.4267 8.75734C71.4267 8.22371 71.2309 7.75994 70.8451 7.37865C70.4596 6.9981 69.9705 6.80527 69.3918 6.80527ZM61.0522 11.8101V27.0677H64.4633V7.24025H59.7421L53.7412 21.9675L47.9177 7.24025H43.0043V27.0676H46.2099V11.8086H46.32L52.4695 27.0677H54.8886L60.9421 11.8101H61.0522Z" fill="#706D6E"/>
<path d="M15.7239 16.3385H0V0.614563H15.7239V16.3385Z" fill="#F1511B"/>
<path d="M33.0849 16.3385H17.3613V0.614563H33.0849V16.3385Z" fill="#80CC28"/>
<path d="M15.7235 33.7056H0V17.9818H15.7235V33.7056Z" fill="#00ADEF"/>
<path d="M33.0849 33.7056H17.3613V17.9818H33.0849V33.7056Z" fill="#FBBC09"/>
</g>
<defs>
<clipPath id="clip0_13_168">
<rect width="155" height="33.108" fill="white" transform="translate(0 0.606018)"/>
</clipPath>
</defs>
</svg>
